<?xml version="1.0" encoding="UTF-8"?>
<svg width="142px" height="132px" viewBox="0 0 142 132" version="1.1" xmlns="http://www.w3.org/2000/svg" xmlns:xlink="http://www.w3.org/1999/xlink">
    <!-- Generator: Sketch 48.2 (47327) - http://www.bohemiancoding.com/sketch -->
    <title>logo_black</title>
    <desc>Created with Sketch.</desc>
    <defs>
        <polygon id="path-1" points="0 92.3453748 0 0.553145185 109.565329 0.553145185 109.565329 92.3453748 1.16486399e-14 92.3453748"></polygon>
    </defs>
    <g id="Homepage" stroke="none" stroke-width="1" fill="none" fill-rule="evenodd" transform="translate(-266.000000, -7545.000000)">
        <g id="footer" transform="translate(261.000000, 7434.000000)">
            <g id="logo_black">
                <g transform="translate(5.000000, 110.192591)">
                    <g id="Group-5" transform="translate(73.088889, 42.273978)" fill="#091C23">
                        <path d="M0.243523704,7.80324519 L2.67664222,7.80324519 C2.67664222,8.36783037 2.83553111,8.80848222 3.15013111,9.12626 C3.46261259,9.44191926 3.86089407,9.60080815 4.33967926,9.60080815 C4.74749407,9.60080815 5.08222,9.48852667 5.33856074,9.26608222 C5.59807926,9.04046 5.72730889,8.74280815 5.72730889,8.37312667 C5.72730889,8.16339333 5.68599778,7.98649704 5.6023163,7.84031926 C5.51969407,7.69308222 5.40529407,7.56597111 5.26123481,7.45580815 C5.11399778,7.34564519 4.94027926,7.24819333 4.74007926,7.16239333 C4.53987926,7.07659333 4.32802741,6.99079333 4.09816815,6.90393407 C3.6289163,6.73445259 3.18190889,6.55861556 2.75502741,6.37748222 C2.32708667,6.19952667 1.94787185,5.98343778 1.61844222,5.73451185 C1.28689407,5.48664519 1.02313852,5.18899333 0.827175556,4.8415563 C0.629094074,4.49200074 0.531642222,4.06406 0.531642222,3.55349704 C0.531642222,3.03234148 0.63439037,2.58003778 0.838827407,2.19340815 C1.04750148,1.80677852 1.31867185,1.48900074 1.65975333,1.23689704 C1.99977556,0.987971111 2.39487926,0.804719259 2.84718296,0.683963704 C3.29630889,0.564267407 3.76556074,0.50388963 4.25176074,0.50388963 C4.86295333,0.50388963 5.4021163,0.593926667 5.86607185,0.772941481 C6.33320519,0.950897037 6.72407185,1.19558593 7.03973111,1.50594889 C7.35433111,1.81631185 7.59160519,2.1711637 7.7473163,2.57262296 C7.90408667,2.97302296 7.98459037,3.39884519 7.98459037,3.84903037 L5.53664222,3.84903037 C5.53664222,3.38719333 5.42436074,3.02280815 5.2019163,2.7537563 C4.97735333,2.48682296 4.65004222,2.35229704 4.22316074,2.35229704 C3.88102,2.35229704 3.58548667,2.44021556 3.33867926,2.61923037 C3.08975333,2.79718593 2.96476074,3.06094148 2.96476074,3.40837852 C2.96476074,3.74840074 3.09399037,4.01957111 3.35350889,4.22824519 C3.60984963,4.43374148 3.97847185,4.62228963 4.45513852,4.79283037 C4.91379778,4.95171926 5.36822,5.12226 5.81522741,5.30445259 C6.26435333,5.48240815 6.66263481,5.70061556 7.00689407,5.95483778 C7.35433111,6.20694148 7.6329163,6.51730444 7.84264963,6.88168963 C8.05556074,7.24819333 8.16042741,7.69837852 8.16042741,8.23330444 C8.16042741,8.74492667 8.06297556,9.20888222 7.86701259,9.62517111 C7.66893111,10.0382822 7.40093852,10.3910156 7.05350148,10.674897 C6.70924222,10.960897 6.29613111,11.1780452 5.8205237,11.332697 C5.34173852,11.4841711 4.82376074,11.5593785 4.26659037,11.5593785 C3.6755237,11.5593785 3.13530148,11.4767563 2.64486444,11.3104526 C2.15336815,11.1441489 1.7307237,10.9015785 1.37693111,10.5795637 C1.02313852,10.2607267 0.744553333,9.86668222 0.543294074,9.40272667 C0.343094074,8.93771185 0.243523704,8.40490444 0.243523704,7.80324519" id="Fill-1"></path>
                        <path d="M9.75800222,11.2882081 L9.75800222,0.767645185 L14.1475726,0.767645185 C14.7269874,0.767645185 15.2513207,0.870393333 15.7226911,1.07588963 C16.1951207,1.28138593 16.5955207,1.55785259 16.9302467,1.90423037 C17.2649726,2.25166741 17.5213133,2.65524519 17.7024467,3.1149637 C17.8825207,3.57468222 17.9725578,4.06088222 17.9725578,4.57568222 C17.9725578,5.08412667 17.8825207,5.56820815 17.7024467,6.02792667 C17.5213133,6.48764519 17.2649726,6.89122296 16.9323652,7.23866 C16.5976393,7.58609704 16.1951207,7.86150444 15.7258689,8.06700074 C15.2544985,8.27249704 14.7291059,8.37524519 14.1496911,8.37524519 L12.1911207,8.37524519 L12.1911207,11.2882081 L9.75800222,11.2882081 Z M12.1911207,6.38701556 L13.8541578,6.38701556 C14.104143,6.38701556 14.332943,6.33828963 14.5479726,6.23554148 C14.7587652,6.13808963 14.9367207,6.00568222 15.08078,5.83937852 C15.2248393,5.67837111 15.3392393,5.48452667 15.4176244,5.26526 C15.5013059,5.04493407 15.5404985,4.81507481 15.5404985,4.57568222 C15.5404985,4.33523037 15.5013059,4.10537111 15.4176244,3.88398593 C15.3392393,3.66048222 15.2248393,3.46769704 15.08078,3.30139333 C14.9367207,3.13932667 14.7608837,3.00797852 14.5511504,2.90523037 C14.3403578,2.80671926 14.10838,2.75587481 13.8541578,2.75587481 L12.1911207,2.75587481 L12.1911207,6.38701556 Z" id="Fill-3"></path>
                    </g>
                    <path d="M90.6808548,53.5621859 L94.4327511,43.041623 L96.6677881,43.041623 L100.464173,53.5621859 L97.8255585,53.5621859 L97.42304,52.336623 L93.6849141,52.336623 L93.2749807,53.5621859 L90.6808548,53.5621859 Z M94.2717437,50.3780526 L96.8213807,50.3780526 L95.5619215,46.0499193 L94.2717437,50.3780526 Z" id="Fill-6" fill="#091C23"></path>
                    <path d="M100.632701,48.3019044 C100.632701,47.5826674 100.754516,46.8909711 100.999205,46.22046 C101.240716,45.5552452 101.599805,44.966297 102.071176,44.4546748 C102.545724,43.9441119 103.129376,43.5352378 103.825309,43.2322896 C104.521242,42.9293415 105.317805,42.7778674 106.217116,42.7778674 C106.989316,42.7778674 107.683131,42.8901489 108.298561,43.1147119 C108.91399,43.3403341 109.445739,43.650697 109.895924,44.0436822 C110.34505,44.4377267 110.706257,44.900623 110.975309,45.4334304 C111.248598,45.9662378 111.418079,46.530823 111.485872,47.1282452 L108.950005,47.1282452 C108.891746,46.8200007 108.792176,46.5361193 108.654472,46.2744822 C108.512531,46.0128452 108.327161,45.7851044 108.097301,45.5891415 C107.863205,45.3995341 107.595213,45.2470007 107.292264,45.1347193 C106.98402,45.0277341 106.639761,44.9705341 106.253131,44.9705341 C105.755279,44.9705341 105.308272,45.0616304 104.917405,45.2470007 C104.521242,45.4281341 104.191813,45.6760007 103.922761,45.9810674 C103.654768,46.2871933 103.449272,46.6409859 103.307331,47.0477415 C103.16539,47.4534378 103.095479,47.8718452 103.095479,48.3019044 C103.095479,48.761623 103.172805,49.19486 103.329576,49.6005563 C103.486346,50.0062526 103.700316,50.3579267 103.978901,50.6619341 C104.25325,50.9595859 104.584798,51.2000378 104.975664,51.3758748 C105.362294,51.5517119 105.798709,51.6396304 106.28279,51.6396304 C106.991435,51.6396304 107.56979,51.4616748 108.019976,51.1047044 C108.469101,50.7477341 108.769931,50.3092007 108.921405,49.791223 L111.500701,49.791223 C111.40325,50.3536896 111.209405,50.8769637 110.926583,51.3610452 C110.638464,51.8451267 110.274079,52.2730674 109.82919,52.6448674 C109.385361,53.0166674 108.859968,53.3079637 108.254072,53.5187563 C107.648176,53.7284896 106.981901,53.8333563 106.253131,53.8333563 C105.373946,53.8333563 104.587976,53.6840007 103.890983,53.3810526 C103.19505,53.0823415 102.603983,52.6766452 102.120961,52.173497 C101.634761,51.6650526 101.265079,51.0803415 101.014035,50.4151267 C100.759813,49.7499119 100.632701,49.0455044 100.632701,48.3019044" id="Fill-7" fill="#091C23"></path>
                    <polygon id="Fill-9" fill="#091C23" points="112.973178 53.5625037 115.435956 53.5625037 115.435956 43.0419407 112.973178 43.0419407"></polygon>
                    <path d="M116.498499,53.5621859 L120.250395,43.041623 L122.485432,43.041623 L126.281817,53.5621859 L123.643202,53.5621859 L123.240684,52.336623 L119.503617,52.336623 L119.092624,53.5621859 L116.498499,53.5621859 Z M120.089387,50.3780526 L122.640084,50.3780526 L121.379565,46.0499193 L120.089387,50.3780526 Z" id="Fill-10" fill="#091C23"></path>
                    <polygon id="Fill-11" fill="#091C23" points="127.344466 53.5621859 127.344466 43.041623 129.777584 43.041623 129.777584 51.4563785 132.767873 51.4563785 132.767873 53.5621859"></polygon>
                    <path d="M91.8182874,65.2347993 L93.1815541,65.2347993 C93.1815541,65.952977 93.3965837,66.5281548 93.826643,66.953977 C94.2588207,67.3840363 94.8329393,67.5969474 95.5532356,67.5969474 C96.1644281,67.5969474 96.6643985,67.4380585 97.058443,67.1245178 C97.4493096,66.80674 97.6442133,66.3639696 97.6442133,65.7919696 C97.6442133,65.4837252 97.5827763,65.2273844 97.46308,65.0218881 C97.3433837,64.8163919 97.1929689,64.6426733 97.0065393,64.5007326 C96.8190504,64.3587919 96.6061393,64.2443919 96.3667467,64.151177 C96.1273541,64.0632585 95.885843,63.9774585 95.6411541,63.8990733 C95.1888504,63.7571326 94.7545541,63.6088363 94.3340281,63.4467696 C93.91668,63.2899993 93.5501763,63.0950956 93.2355763,62.8652363 C92.919917,62.635377 92.6688726,62.3514956 92.4782059,62.0135919 C92.2875393,61.6767474 92.1922059,61.25834 92.1922059,60.7594289 C92.1922059,60.290177 92.2769467,59.8717696 92.4485467,59.5052659 C92.6190874,59.137703 92.8489467,58.8326363 93.140243,58.5879474 C93.43048,58.3432585 93.7726207,58.1578881 94.1687837,58.0275993 C94.5638874,57.8983696 94.9822948,57.8316363 95.4187096,57.8316363 C95.9102059,57.8316363 96.3593319,57.9100215 96.7692652,58.0625548 C97.1802578,58.2182659 97.5340504,58.4364733 97.8295837,58.717177 C98.125117,58.99894 98.3549763,59.3357844 98.5191615,59.7319474 C98.6822874,60.1281104 98.7659689,60.5666437 98.7659689,61.0454289 L97.4027022,61.0454289 C97.3825763,60.4141104 97.2025022,59.9257919 96.86248,59.5836511 C96.523517,59.2362141 96.0468504,59.0646141 95.4335393,59.0646141 C94.8816652,59.0646141 94.4293615,59.203377 94.0808652,59.4830215 C93.7313096,59.7616067 93.5554726,60.1577696 93.5554726,60.6715104 C93.5554726,60.9405622 93.6084356,61.1704215 93.7143615,61.3610881 C93.8192281,61.5517548 93.9611689,61.7148807 94.1391244,61.8472881 C94.31708,61.9849919 94.5246948,62.0972733 94.7619689,62.1947252 C95.0013615,62.28794 95.2481689,62.3758585 95.5066281,62.4542437 C95.9388059,62.5961844 96.3646281,62.7476585 96.7840948,62.9086659 C97.2046207,63.0707326 97.5806578,63.2709326 97.9100874,63.5103252 C98.2405763,63.7497178 98.5064504,64.0463104 98.7066504,64.3958659 C98.9068504,64.7454215 99.00748,65.180777 99.00748,65.7040511 C99.00748,66.1934289 98.9142652,66.630903 98.7288948,67.0175326 C98.5435244,67.4041622 98.2914207,67.7314733 97.9768207,68.0005252 C97.6611615,68.269577 97.2904207,68.4750733 96.8645985,68.6170141 C96.4398356,68.7589548 95.9832948,68.8299252 95.4917985,68.8299252 C94.9621689,68.8299252 94.4738504,68.7462437 94.0289615,68.57994 C93.5840726,68.4136363 93.1985022,68.17954 92.8690726,67.8734141 C92.5385837,67.5672881 92.282243,67.1912511 92.0968726,66.7463622 C91.9115022,66.3014733 91.8182874,65.7972659 91.8182874,65.2347993" id="Fill-12" fill="#091C23"></path>
                    <polygon id="Fill-14" fill="#091C23" points="99.886877 59.29924 99.886877 58.0673215 106.702151 58.0673215 106.702151 59.29924 103.968203 59.29924 103.968203 68.5878844 102.605996 68.5878844 102.605996 59.29924"></polygon>
                    <g id="Group-19" transform="translate(106.985185, 57.103607)" fill="#091C23">
                        <path d="M0.955451852,8.07219111 L0.955451852,0.963502222 L2.31871852,0.963502222 L2.31871852,8.07219111 C2.31871852,8.39526519 2.37274074,8.70350963 2.47760741,8.99692444 C2.58247407,9.29033926 2.73394815,9.54985778 2.93414815,9.77124296 C3.13646667,9.99474667 3.37585926,10.1705837 3.65444444,10.3008726 C3.93302963,10.4301022 4.24868889,10.4936578 4.60248148,10.4936578 C4.94462222,10.4936578 5.2571037,10.4301022 5.54098519,10.3008726 C5.82380741,10.1705837 6.06531852,9.99686519 6.2686963,9.78183556 C6.4688963,9.56680593 6.62248889,9.31152444 6.73265185,9.01387259 C6.84281481,8.72045778 6.89895556,8.40479852 6.89895556,8.07219111 L6.89895556,0.963502222 L8.26116296,0.963502222 L8.26116296,8.07219111 C8.26116296,8.57110222 8.17324444,9.04353185 7.99846667,9.48312444 C7.82157037,9.92801333 7.57794074,10.314643 7.26228148,10.6430133 C6.94768148,10.9745615 6.56422963,11.2372578 6.10980741,11.4321615 C5.65538519,11.6281244 5.15223704,11.7255763 4.60248148,11.7255763 C4.04001481,11.7255763 3.53792593,11.6281244 3.09303704,11.4321615 C2.64814815,11.2372578 2.26681481,10.9745615 1.94691852,10.6430133 C1.62702222,10.314643 1.38339259,9.92801333 1.21179259,9.48842074 C1.04125185,9.04776889 0.955451852,8.57639852 0.955451852,8.07219111" id="Fill-15"></path>
                        <path d="M10.5042504,11.4837474 L10.5042504,0.963184444 L13.7413467,0.963184444 C14.6109985,0.963184444 15.3821393,1.11465852 16.0590059,1.41336963 C16.7326948,1.71631778 17.3046948,2.11248074 17.7665319,2.60185852 C18.2304874,3.09547333 18.5853393,3.65582148 18.8268504,4.28714 C19.0683615,4.91739926 19.1880578,5.56354741 19.1880578,6.22346593 C19.1880578,6.88338444 19.0683615,7.52953259 18.8268504,8.16085111 C18.5853393,8.79111037 18.2304874,9.35145852 17.7665319,9.84507333 C17.3046948,10.3344511 16.7326948,10.7306141 16.0590059,11.0335622 C15.3821393,11.3322733 14.6109985,11.4837474 13.7413467,11.4837474 L10.5042504,11.4837474 Z M11.867517,10.2507696 L13.7434652,10.2507696 C14.3832578,10.2507696 14.9552578,10.1363696 15.4637022,9.90651037 C15.9657911,9.67665111 16.3894948,9.3726437 16.7284578,8.99660667 C17.06848,8.62056963 17.3290578,8.19262889 17.5101911,7.71278444 C17.6913244,7.23399926 17.7813615,6.73720667 17.7813615,6.22346593 C17.7813615,5.71396222 17.6913244,5.22034741 17.5101911,4.7394437 C17.3290578,4.25748074 17.06848,3.82954 16.7284578,3.4524437 C16.3894948,3.08170296 15.9657911,2.77769556 15.4637022,2.54254 C14.9552578,2.31268074 14.3832578,2.19510296 13.7434652,2.19510296 L11.867517,2.19510296 L11.867517,10.2507696 Z" id="Fill-17"></path>
                    </g>
                    <polygon id="Fill-20" fill="#091C23" points="127.946867 68.587037 129.353563 68.587037 129.353563 58.0664741 127.946867 58.0664741"></polygon>
                    <g id="Group-30" transform="translate(0.000000, 0.962867)">
                        <path d="M131.142122,62.3641007 C131.142122,61.6554563 131.267115,60.9701156 131.516041,60.3070193 C131.764967,59.6449822 132.124056,59.0581526 132.593307,58.5486489 C133.059381,58.0402044 133.629263,57.6345081 134.300833,57.3283822 C134.970285,57.0233156 135.726596,56.8686637 136.569767,56.8686637 C137.407641,56.8686637 138.165011,57.0233156 138.834463,57.3283822 C139.506033,57.6345081 140.074856,58.0402044 140.536693,58.5486489 C141.000648,59.0581526 141.359737,59.6449822 141.611841,60.3070193 C141.862885,60.9701156 141.987878,61.6554563 141.987878,62.3641007 C141.987878,63.0738044 141.862885,63.7602044 141.611841,64.420123 C141.359737,65.0853378 141.000648,65.6732267 140.536693,66.1816711 C140.074856,66.6954119 139.506033,67.1032267 138.834463,67.4093526 C138.165011,67.7123007 137.407641,67.8669526 136.569767,67.8669526 C135.726596,67.8669526 134.970285,67.7123007 134.300833,67.4093526 C133.629263,67.1032267 133.059381,66.6954119 132.593307,66.1816711 C132.124056,65.6732267 131.764967,65.0853378 131.516041,64.4254193 C131.267115,63.7655007 131.142122,63.0780415 131.142122,62.3641007 M132.585893,62.3641007 C132.585893,62.9170341 132.67593,63.4498415 132.859181,63.9604044 C133.042433,64.4720267 133.309367,64.9243304 133.655744,65.3204933 C134.000004,65.7166563 134.418411,66.0344341 134.90673,66.2738267 C135.395048,66.5142785 135.949041,66.6339748 136.569767,66.6339748 C137.177781,66.6339748 137.732833,66.5142785 138.226448,66.2738267 C138.722181,66.0344341 139.13953,65.7166563 139.479552,65.3204933 C139.818515,64.9243304 140.080152,64.4720267 140.265522,63.9604044 C140.451952,63.4498415 140.544107,62.9170341 140.544107,62.3641007 C140.544107,61.8111674 140.451952,61.27836 140.265522,60.7646193 C140.080152,60.2508785 139.818515,59.7964563 139.479552,59.4002933 C139.13953,59.0041304 138.722181,58.6884711 138.226448,58.4533156 C137.732833,58.2192193 137.177781,58.1016415 136.569767,58.1016415 C135.949041,58.1016415 135.395048,58.2192193 134.90673,58.4533156 C134.418411,58.6884711 134.000004,59.0041304 133.655744,59.4002933 C133.309367,59.7964563 133.042433,60.2540563 132.859181,60.7667378 C132.67593,61.2857748 132.585893,61.8164637 132.585893,62.3641007" id="Fill-21" fill="#091C23"></path>
                        <path d="M120.358757,26.5821111 L103.030335,0.0963925926 L76.0425274,17.793437 C91.1189644,10.7673704 109.109424,14.3519037 120.358757,26.5821111" id="Fill-23" fill="#091C23"></path>
                        <path d="M31.0484778,115.112881 L41.6707296,131.348148 L56.9230037,121.344504 C47.9076481,124.750022 37.6052926,122.328556 31.0484778,115.112881" id="Fill-25" fill="#091C23"></path>
                        <g id="Group-29" transform="translate(0.000000, 23.303704)">
                            <mask id="mask-2" fill="white">
                                <use xlink:href="#path-1"></use>
                            </mask>
                            <g id="Clip-28"></g>
                            <path d="M60.2292696,50.5268785 C49.5159215,34.3551674 52.6545067,13.034397 66.7956178,0.553145185 L-0.000211851852,44.3566933 L26.9176844,85.4951452 C22.2590622,75.0805081 25.6380993,62.5272267 35.4489585,56.0127822 C46.3741585,48.7589748 61.1042178,51.7450267 68.3495511,62.6818785 C74.6298993,72.1643674 73.2126104,84.5005007 65.6092474,92.3453748 L109.565329,63.5218711 C92.4360474,72.2671156 71.11104,66.9517526 60.2292696,50.5268785 M51.5793585,40.2192267 C51.5793585,45.2517674 47.6071363,49.3309748 42.7059437,49.3309748 C37.8047511,49.3309748 33.8314696,45.2517674 33.8314696,40.2192267 C33.8314696,35.1877452 37.8047511,31.1074785 42.7059437,31.1074785 C47.6071363,31.1074785 51.5793585,35.1877452 51.5793585,40.2192267" id="Fill-27" fill="#091C23" mask="url(#mask-2)"></path>
                        </g>
                    </g>
                </g>
            </g>
        </g>
    </g>
</svg>