<svg width="109" height="119" xmlns="http://www.w3.org/2000/svg" xmlns:xlink="http://www.w3.org/1999/xlink"><defs><path id="a" d="M0 .642h109v108.952H0z"/></defs><g fill="none" fill-rule="evenodd"><mask id="b" fill="#fff"><use xlink:href="#a"/></mask><path d="M109 55.118C109 25.031 84.6.642 54.5.642S0 25.032 0 55.118c0 30.087 24.4 54.476 54.5 54.476S109 85.204 109 55.118" fill="#231F20" mask="url(#b)"/><path d="M15 47.922h3.073c0 .613.202 1.092.599 1.437.392.341.898.513 1.502.513.515 0 .937-.12 1.26-.362.328-.244.493-.568.493-.969 0-.227-.054-.42-.158-.578a1.452 1.452 0 0 0-.431-.418 3.51 3.51 0 0 0-.659-.318c-.254-.093-.52-.186-.81-.28a37.36 37.36 0 0 1-1.698-.572 6.84 6.84 0 0 1-1.435-.7 3.326 3.326 0 0 1-.999-.968c-.249-.38-.374-.843-.374-1.397 0-.565.13-1.057.39-1.477.263-.42.606-.763 1.037-1.038.427-.27.928-.469 1.497-.6A7.983 7.983 0 0 1 20.063 40c.772 0 1.452.097 2.037.292.592.193 1.085.458 1.482.795.4.337.698.723.895 1.157.197.435.299.9.299 1.387h-3.09c0-.503-.143-.897-.422-1.19-.286-.29-.698-.436-1.238-.436-.432 0-.807.095-1.117.29a.948.948 0 0 0-.471.859c0 .366.162.663.49.888.324.222.79.428 1.391.612.58.174 1.154.358 1.72.555a7.18 7.18 0 0 1 1.504.706c.439.276.789.61 1.055 1.007.269.398.402.886.402 1.467 0 .555-.126 1.06-.372 1.51-.25.45-.587.831-1.026 1.14-.434.31-.957.548-1.559.715a7.497 7.497 0 0 1-1.96.246c-.748 0-1.43-.091-2.05-.271-.621-.18-1.154-.443-1.6-.793a3.702 3.702 0 0 1-1.053-1.278c-.254-.504-.38-1.083-.38-1.736M27 52V40h5.343c.706 0 1.343.118 1.919.352.575.234 1.062.55 1.469.944.409.397.72.858.941 1.381A4.29 4.29 0 0 1 37 44.343c0 .581-.11 1.134-.328 1.657a4.156 4.156 0 0 1-.939 1.38c-.406.397-.896.711-1.469.947-.573.234-1.212.35-1.918.35h-2.384V52H27zm2.962-5.59h2.025c.304 0 .582-.056.844-.172.256-.111.473-.262.649-.454a1.92 1.92 0 0 0 .409-.653c.102-.251.15-.514.15-.788a2.08 2.08 0 0 0-.15-.788 1.991 1.991 0 0 0-.41-.664 2.087 2.087 0 0 0-.643-.452 2.112 2.112 0 0 0-.85-.172h-2.024v4.143zM36 52l4.218-12h2.514L47 52h-2.966l-.453-1.396h-4.204L38.916 52H36zm4.038-3.63h2.867l-1.416-4.938-1.451 4.938zM47 45.996c0-.78.134-1.533.405-2.26a5.644 5.644 0 0 1 1.184-1.915 5.711 5.711 0 0 1 1.936-1.327c.77-.329 1.647-.494 2.641-.494.852 0 1.62.123 2.298.367a5.56 5.56 0 0 1 1.764 1.006c.496.428.895.93 1.19 1.51.304.578.491 1.19.565 1.839h-2.799a3.226 3.226 0 0 0-.327-.926 2.594 2.594 0 0 0-.615-.744 3.18 3.18 0 0 0-.888-.494 3.519 3.519 0 0 0-1.15-.178c-.547 0-1.04.1-1.474.301a3.22 3.22 0 0 0-1.097.797 3.41 3.41 0 0 0-.68 1.157 4.008 4.008 0 0 0-.234 1.36c0 .499.086.971.258 1.41.173.441.41.822.718 1.151a3.32 3.32 0 0 0 1.1.776c.427.193.91.286 1.444.286.783 0 1.421-.193 1.917-.579.496-.39.828-.865.996-1.426H59a5.015 5.015 0 0 1-.634 1.704c-.317.523-.72.99-1.214 1.392-.489.405-1.069.72-1.737.95a6.836 6.836 0 0 1-2.21.341c-.97 0-1.837-.163-2.607-.492a5.938 5.938 0 0 1-1.955-1.31 5.598 5.598 0 0 1-1.223-1.91 6.273 6.273 0 0 1-.42-2.292M61 52h2V40h-2zM65 52l4.218-12h2.512L76 52h-2.966l-.453-1.396H68.38L67.916 52H65zm4.038-3.63h2.87l-1.419-4.938-1.451 4.938zM77 52V40h2.692v9.6H83V52zM36 66.078h1.706c0 .782.269 1.41.807 1.875.542.47 1.259.7 2.163.7.765 0 1.388-.172 1.885-.513.488-.347.73-.83.73-1.455 0-.336-.075-.615-.224-.84a2.024 2.024 0 0 0-.572-.568 3.452 3.452 0 0 0-.802-.383c-.298-.096-.601-.19-.907-.275a28.336 28.336 0 0 1-1.638-.492 5.985 5.985 0 0 1-1.373-.635 3.07 3.07 0 0 1-.949-.927c-.24-.368-.36-.826-.36-1.37a2.853 2.853 0 0 1 1.189-2.368 4.03 4.03 0 0 1 1.288-.612A5.615 5.615 0 0 1 40.507 58c.614 0 1.176.087 1.69.254.515.168.958.409 1.327.713.369.31.657.675.865 1.108.203.432.308.91.308 1.431H42.99c-.025-.688-.252-1.22-.677-1.595-.423-.377-1.02-.565-1.79-.565-.689 0-1.256.152-1.691.456-.44.305-.658.735-.658 1.298 0 .294.066.543.198.752.13.206.308.385.53.53.223.151.485.273.78.38.301.1.61.195.934.283.54.153 1.073.32 1.599.496.525.177.997.394 1.41.654.413.262.746.588.995.967.252.381.379.856.379 1.427 0 .533-.117 1.012-.35 1.434-.232.42-.547.778-.94 1.072-.397.294-.861.517-1.394.67a6.003 6.003 0 0 1-1.718.235 5.9 5.9 0 0 1-1.831-.273 4.471 4.471 0 0 1-1.452-.77 3.46 3.46 0 0 1-.965-1.232c-.235-.484-.35-1.033-.35-1.647M45 59.405V58h7v1.405h-2.808V70h-1.398V59.405zM55 65.927V58h1.68v7.927c0 .359.067.703.197 1.032.127.326.315.616.562.862.248.248.542.444.886.592a3.05 3.05 0 0 0 1.169.213c.421 0 .806-.072 1.157-.213.347-.148.645-.342.895-.581.245-.238.436-.523.573-.856.134-.327.204-.68.204-1.05V58H64v7.927c0 .557-.108 1.082-.325 1.574a3.821 3.821 0 0 1-.907 1.29c-.387.37-.859.665-1.417.882a5.096 5.096 0 0 1-1.857.327c-.693 0-1.314-.109-1.86-.327a4.394 4.394 0 0 1-1.412-.881 3.793 3.793 0 0 1-.907-1.285 4.004 4.004 0 0 1-.315-1.58M66 70V58h3.727c1.003 0 1.892.171 2.67.514.776.346 1.435.798 1.968 1.355a5.854 5.854 0 0 1 1.221 1.922c.279.719.414 1.456.414 2.209 0 .753-.135 1.49-.414 2.21a5.854 5.854 0 0 1-1.221 1.921c-.533.557-1.192 1.01-1.968 1.357-.778.338-1.667.512-2.67.512H66zm1.568-1.408h2.161c.738 0 1.397-.129 1.982-.392a4.424 4.424 0 0 0 1.46-1.035c.389-.432.69-.92.9-1.468a4.75 4.75 0 0 0 0-3.39 4.608 4.608 0 0 0-.9-1.467 4.562 4.562 0 0 0-1.46-1.038c-.585-.26-1.244-.397-1.982-.397h-2.161v9.187zM78 70h2V58h-2zM82 63.996c0-.772.138-1.522.413-2.244a5.861 5.861 0 0 1 1.192-1.92 5.744 5.744 0 0 1 1.89-1.33c.741-.332 1.577-.502 2.508-.502.93 0 1.767.17 2.506.503a5.703 5.703 0 0 1 1.886 1.33 6.035 6.035 0 0 1 1.188 1.92 6.234 6.234 0 0 1 0 4.488 5.989 5.989 0 0 1-1.188 1.92 5.609 5.609 0 0 1-1.886 1.34c-.739.33-1.577.499-2.506.499-.93 0-1.767-.168-2.508-.499a5.648 5.648 0 0 1-1.89-1.34 5.842 5.842 0 0 1-1.192-1.915 6.268 6.268 0 0 1-.413-2.25m1.596 0c0 .603.1 1.187.305 1.74.203.56.497 1.055.88 1.488.382.43.844.777 1.384 1.04.54.262 1.153.392 1.838.392.674 0 1.288-.13 1.834-.393a4.246 4.246 0 0 0 1.387-1.04c.374-.432.663-.926.87-1.486a4.984 4.984 0 0 0 .307-1.741c0-.603-.101-1.185-.306-1.743a4.816 4.816 0 0 0-.87-1.492 4.142 4.142 0 0 0-1.388-1.033 4.315 4.315 0 0 0-1.834-.384c-.685 0-1.298.13-1.838.384a4.29 4.29 0 0 0-1.385 1.033 4.628 4.628 0 0 0-.879 1.494 5.052 5.052 0 0 0-.305 1.74" fill="#FEFEFE"/><path fill="#231F20" d="M55.751 119L47 107h16z"/></g></svg>