
<svg width="10px" height="115px" viewBox="0 0 10 115" version="1.1" xmlns="http://www.w3.org/2000/svg" xmlns:xlink="http://www.w3.org/1999/xlink">
    <g id="Page-1" stroke="none" stroke-width="1" fill="none" fill-rule="evenodd">
        <path d="M-21.5,86.5 L30.5,86.5" id="Stroke-1" stroke="#FFFFFF" stroke-width="0.5" transform="translate(4.500000, 87.000000) rotate(90.000000) translate(-4.500000, -87.000000) "></path>
        <polyline id="Stroke-3" stroke="#FFFFFF" stroke-width="0.5" transform="translate(5.000000, 110.323429) rotate(90.000000) translate(-5.000000, -110.323429) " points="1.67657135 106.323429 8.32342865 110.440619 1.67657135 114.323429"></polyline>
        <path d="M-15.1920001,23.3559999 L-16.2480001,24.1119999 C-16.6560001,23.5479999 -17.1000001,23.2119999 -18.0360001,23.2119999 C-18.8880001,23.2119999 -19.3920001,23.5959999 -19.3920001,24.2919999 C-19.3920001,25.0839999 -18.7680001,25.3959999 -17.6160001,25.6479999 C-15.9480001,26.0079999 -15.0840001,26.6319999 -15.0840001,28.1199999 C-15.0840001,29.3559999 -15.9120001,30.4959999 -17.9040001,30.4959999 C-19.3200001,30.4959999 -20.3160001,30.0639999 -21.0000001,29.1399999 L-19.9080001,28.3839999 C-19.4160001,28.9719999 -18.9240001,29.2839999 -17.9760001,29.2839999 C-16.8360001,29.2839999 -16.4760001,28.7799999 -16.4760001,28.1799999 C-16.4760001,27.5199999 -16.8480001,27.1119999 -18.2880001,26.7999999 C-19.8840001,26.4639999 -20.7840001,25.6959999 -20.7840001,24.2919999 C-20.7840001,23.0439999 -19.9680001,21.9999999 -18.0240001,21.9999999 C-16.7040001,21.9999999 -15.7800001,22.4439999 -15.1920001,23.3559999 Z M-9.74400008,28.8039999 L-8.78400008,29.4759999 C-9.20400008,30.2079999 -9.87600008,30.4959999 -10.9320001,30.4959999 C-12.6480001,30.4959999 -13.5600001,29.3799999 -13.5600001,27.7839999 L-13.5600001,26.9679999 C-13.5600001,25.2039999 -12.6960001,24.2799999 -11.1240001,24.2799999 C-9.48000008,24.2799999 -8.70000008,25.2639999 -8.70000008,27.0399999 L-8.70000008,27.6999999 L-12.2880001,27.6999999 L-12.2880001,27.7239999 C-12.2880001,28.6599999 -11.9280001,29.3919999 -10.9800001,29.3919999 C-10.2720001,29.3919999 -9.98400008,29.1759999 -9.74400008,28.8039999 Z M-11.1240001,25.3959999 C-11.8680001,25.3959999 -12.2160001,25.8999999 -12.2760001,26.7159999 L-9.98400008,26.7159999 C-10.0320001,25.8399999 -10.3920001,25.3959999 -11.1240001,25.3959999 Z M-3.30000005,28.8039999 L-2.34000005,29.4759999 C-2.76000005,30.2079999 -3.43200005,30.4959999 -4.48800005,30.4959999 C-6.20400005,30.4959999 -7.11600005,29.3799999 -7.11600005,27.7839999 L-7.11600005,26.9679999 C-7.11600005,25.2039999 -6.25200005,24.2799999 -4.68000005,24.2799999 C-3.03600005,24.2799999 -2.25600005,25.2639999 -2.25600005,27.0399999 L-2.25600005,27.6999999 L-5.84400005,27.6999999 L-5.84400005,27.7239999 C-5.84400005,28.6599999 -5.48400005,29.3919999 -4.53600005,29.3919999 C-3.82800005,29.3919999 -3.54000005,29.1759999 -3.30000005,28.8039999 Z M-4.68000005,25.3959999 C-5.42400005,25.3959999 -5.77200005,25.8999999 -5.83200005,26.7159999 L-3.54000005,26.7159999 C-3.58800005,25.8399999 -3.94800005,25.3959999 -4.68000005,25.3959999 Z M3.18,30.3879999 L3.18,24.3879999 L4.44,24.3879999 L4.44,24.9279999 C4.68,24.5679999 5.136,24.2799999 5.844,24.2799999 C6.6,24.2799999 7.2,24.5799999 7.56,25.1439999 C7.956,24.6039999 8.568,24.2799999 9.312,24.2799999 C10.608,24.2799999 11.388,25.0719999 11.388,26.6319999 L11.388,30.3879999 L10.104,30.3879999 L10.104,26.7759999 C10.104,25.7919999 9.696,25.4199999 9.036,25.4199999 C8.4,25.4199999 7.944,25.8999999 7.92,26.7039999 L7.92,30.3879999 L6.648,30.3879999 L6.648,26.7759999 C6.648,25.7559999 6.204,25.4199999 5.592,25.4199999 C4.932,25.4199999 4.464,25.9239999 4.464,26.7639999 L4.464,30.3879999 L3.18,30.3879999 Z M18.204,27.0039999 L18.204,27.7599999 C18.204,29.3559999 17.424,30.4959999 15.66,30.4959999 C13.98,30.4959999 13.104,29.4159999 13.104,27.7599999 L13.104,27.0039999 C13.104,25.2399999 14.04,24.2799999 15.66,24.2799999 C17.28,24.2799999 18.204,25.2399999 18.204,27.0039999 Z M15.66,29.3919999 C16.572,29.3919999 16.932,28.6599999 16.932,27.7239999 L16.932,27.0279999 C16.932,25.9839999 16.512,25.3959999 15.66,25.3959999 C14.796,25.3959999 14.376,25.9959999 14.376,27.0279999 L14.376,27.7239999 C14.376,28.6599999 14.688,29.3919999 15.66,29.3919999 Z M24.192,25.1679999 L23.172,25.8879999 C22.98,25.6119999 22.716,25.4199999 22.308,25.4199999 C21.66,25.4199999 21.204,25.8999999 21.204,26.7639999 L21.204,30.3879999 L19.92,30.3879999 L19.92,24.3879999 L21.18,24.3879999 L21.18,24.9279999 C21.408,24.5799999 21.816,24.2799999 22.524,24.2799999 C23.292,24.2799999 23.82,24.5799999 24.192,25.1679999 Z M28.8720001,28.8039999 L29.8320001,29.4759999 C29.4120001,30.2079999 28.7400001,30.4959999 27.6840001,30.4959999 C25.9680001,30.4959999 25.0560001,29.3799999 25.0560001,27.7839999 L25.0560001,26.9679999 C25.0560001,25.2039999 25.9200001,24.2799999 27.4920001,24.2799999 C29.1360001,24.2799999 29.9160001,25.2639999 29.9160001,27.0399999 L29.9160001,27.6999999 L26.3280001,27.6999999 L26.3280001,27.7239999 C26.3280001,28.6599999 26.6880001,29.3919999 27.6360001,29.3919999 C28.3440001,29.3919999 28.6320001,29.1759999 28.8720001,28.8039999 Z M27.4920001,25.3959999 C26.7480001,25.3959999 26.4000001,25.8999999 26.3400001,26.7159999 L28.6320001,26.7159999 C28.5840001,25.8399999 28.2240001,25.3959999 27.4920001,25.3959999 Z" id="Shape" fill="#FFFFFF" fill-rule="nonzero" transform="translate(4.458000, 26.248000) rotate(-90.000000) translate(-4.458000, -26.248000) "></path>
    </g>
</svg>
