<svg xmlns="http://www.w3.org/2000/svg" width="151.5" height="28.2"><g transform="translate(0 .18)"><defs><filter id="a" filterUnits="userSpaceOnUse" x="0" y="-.2" width="20.2" height="28.2"><feColorMatrix values="1 0 0 0 0 0 1 0 0 0 0 0 1 0 0 0 0 0 1 0"/></filter></defs><mask maskUnits="userSpaceOnUse" x="0" y="-.2" width="20.2" height="28.2" id="b"><path fill="#FFF" d="M20.2 28H0V-.2h20.2z" filter="url(#a)"/></mask><path mask="url(#b)" fill="#FFF" d="M0 18.4h6.2c0 1.4.4 2.6 1.2 3.4.8.8 1.8 1.2 3 1.2 1 0 1.9-.3 2.5-.9.7-.6 1-1.3 1-2.3 0-.5-.1-1-.3-1.4-.2-.4-.5-.7-.9-1-.4-.3-.8-.5-1.3-.7-.5-.2-1.1-.4-1.6-.7-1.2-.4-2.3-.9-3.4-1.3-1.1-.5-2.1-1-2.9-1.6-.8-.6-1.5-1.4-2-2.3C1 10 .7 8.9.7 7.6c0-1.3.3-2.5.8-3.5s1.2-1.8 2.1-2.4c.9-.6 1.9-1.1 3-1.4C7.8 0 9-.2 10.2-.2c1.6 0 2.9.2 4.1.7 1.2.5 2.2 1.1 3 1.9.8.8 1.4 1.7 1.8 2.7.4 1 .6 2.1.6 3.3h-6.2c0-1.2-.3-2.1-.9-2.8-.6-.7-1.4-1-2.5-1-.9 0-1.6.2-2.3.7-.6.5-1 1.1-1 2 0 .9.3 1.6 1 2.1s1.6 1 2.8 1.4c1.2.4 2.3.8 3.5 1.3 1.1.5 2.2 1 3 1.7.9.6 1.6 1.4 2.1 2.4.5.9.8 2.1.8 3.4 0 1.3-.2 2.5-.8 3.5-.5 1.1-1.2 1.9-2.1 2.7-.9.7-1.9 1.3-3.1 1.7-1.2.4-2.5.6-4 .6s-2.9-.2-4.1-.6c-1.3-.4-2.3-1-3.2-1.9-.9-.8-1.6-1.8-2.1-3C.3 21.3 0 20 0 18.4"/></g><path fill="#FFF" d="M24.3 27.48V.68h11.2c1.5 0 2.8.3 4 .8 1.2.5 2.2 1.2 3.1 2.1.9.9 1.5 1.9 2 3.1.5 1.2.7 2.4.7 3.7 0 1.3-.2 2.5-.7 3.7-.5 1.2-1.1 2.2-2 3.1-.9.9-1.9 1.6-3.1 2.1-1.2.5-2.5.8-4 .8h-5v7.4h-6.2zm6.2-12.5h4.2c.6 0 1.2-.1 1.8-.4.5-.2 1-.6 1.4-1 .4-.4.7-.9.9-1.5.2-.6.3-1.1.3-1.8 0-.6-.1-1.2-.3-1.8-.2-.6-.5-1.1-.9-1.5-.4-.4-.8-.7-1.3-1-.5-.3-1.1-.4-1.8-.4h-4.2v9.4zM53.8.7l-9.6 26.8h6.6l1-3.1h9.5l1 3.1H69L59.5.7h-5.7zm2.9 7.6l3.2 11h-6.5l3.3-11zM69.6 14.1c0-1.8.3-3.6.9-5.3.6-1.7 1.5-3.2 2.7-4.5C74.4 3 75.9 2 77.7 1.2 79.5.4 81.5 0 83.8 0c2 0 3.7.3 5.3.9 1.6.6 2.9 1.4 4.1 2.4 1.1 1 2.1 2.2 2.8 3.5.7 1.4 1.1 2.8 1.3 4.3h-6.5c-.2-.8-.4-1.5-.8-2.2-.4-.7-.8-1.2-1.4-1.7-.6-.5-1.3-.9-2-1.2-.8-.3-1.7-.4-2.6-.4-1.3 0-2.4.2-3.4.7-1 .5-1.8 1.1-2.5 1.9-.7.8-1.2 1.7-1.6 2.7-.4 1-.5 2.1-.5 3.2 0 1.2.2 2.3.6 3.3.4 1 .9 1.9 1.7 2.7.7.8 1.5 1.4 2.5 1.8 1 .4 2.1.7 3.3.7 1.8 0 3.3-.5 4.4-1.4 1.1-.9 1.9-2 2.3-3.3h6.6c-.2 1.4-.7 2.8-1.5 4-.7 1.2-1.7 2.3-2.8 3.3-1.1.9-2.5 1.7-4 2.2-1.5.5-3.2.8-5.1.8-2.2 0-4.2-.4-6-1.2-1.8-.8-3.3-1.8-4.5-3.1-1.2-1.3-2.2-2.8-2.8-4.5-.8-1.6-1.1-3.4-1.1-5.3M101 27.5h6.3V.7H101zM119.6.7L110 27.5h6.6l1-3.1h9.5l1 3.1h6.7L125.1.7h-5.5zm2.9 7.6l3.2 11h-6.5l3.3-11zM137.7.7v26.8h13.8v-5.4h-7.6V.7z"/></svg>