<svg xmlns="http://www.w3.org/2000/svg" width="127.9" height="28"><path fill="#FFF" d="M0 18.9h3.5c0 1.8.5 3.3 1.6 4.4 1.1 1.1 2.6 1.6 4.4 1.6 1.6 0 2.8-.4 3.8-1.2 1-.8 1.5-1.9 1.5-3.4 0-.8-.2-1.4-.5-2-.3-.5-.7-1-1.2-1.3-.5-.4-1-.7-1.6-.9-.6-.2-1.2-.4-1.9-.6-1.2-.4-2.3-.7-3.3-1.2-1.1-.4-2-.9-2.8-1.5-.8-.6-1.4-1.3-1.9-2.2-.4-.8-.6-1.9-.6-3.1 0-1.2.2-2.3.7-3.2.4-.9 1-1.7 1.8-2.3C4.1 1.3 5 .8 6 .5 7 .2 8.1 0 9.2 0c1.3 0 2.4.2 3.4.6 1 .4 1.9 1 2.7 1.7.8.7 1.3 1.6 1.8 2.6s.6 2.1.6 3.3h-3.5c0-1.6-.5-2.9-1.4-3.7-.8-.9-2-1.4-3.6-1.4-1.4 0-2.6.4-3.4 1.1-.9.7-1.3 1.7-1.3 3 0 .7.1 1.3.4 1.8.3.5.6.9 1.1 1.2.5.4 1 .6 1.6.9.6.2 1.2.5 1.9.7 1.1.4 2.2.7 3.3 1.2 1.1.4 2 .9 2.9 1.5.8.6 1.5 1.4 2 2.3.5.9.8 2 .8 3.3 0 1.2-.2 2.4-.7 3.4-.5 1-1.1 1.8-1.9 2.5-.8.7-1.7 1.2-2.8 1.6-1.1.4-2.2.5-3.5.5-1.4 0-2.6-.2-3.7-.6-1.1-.4-2.1-1-3-1.8-.8-.8-1.5-1.7-2-2.9-.7-1.2-.9-2.5-.9-3.9M20.6.6v3.1h6.9v23.7H31V3.7h6.9V.6z"/><g fill="#FFF"><path d="M41.1 18.68V.58h3.5v18.1c0 .8.1 1.6.4 2.4.3.7.7 1.4 1.2 2 .5.6 1.1 1 1.8 1.3.7.3 1.5.5 2.4.5.9 0 1.7-.2 2.4-.5s1.3-.8 1.9-1.3c.5-.5.9-1.2 1.2-2 .3-.7.4-1.6.4-2.4V.58h3.5v18.1c0 1.3-.2 2.5-.7 3.6-.5 1.1-1.1 2.1-1.9 3-.8.8-1.8 1.5-2.9 2s-2.4.7-3.8.7-2.7-.3-3.8-.7c-1.1-.5-2.1-1.2-2.9-2-.8-.8-1.4-1.8-1.9-2.9-.6-1.2-.8-2.4-.8-3.7M65.4 27.38V.58h8.3c2.2 0 4.2.4 5.9 1.1 1.7.8 3.2 1.8 4.4 3 1.2 1.3 2.1 2.7 2.7 4.3.6 1.6.9 3.3.9 4.9s-.3 3.3-.9 4.9c-.6 1.6-1.5 3-2.7 4.3-1.2 1.2-2.6 2.3-4.4 3-1.7.8-3.7 1.1-5.9 1.1h-8.3zm3.5-3.1h4.8c1.6 0 3.1-.3 4.4-.9 1.3-.6 2.4-1.4 3.2-2.3.9-1 1.5-2 2-3.3.5-1.2.7-2.5.7-3.8 0-1.3-.2-2.6-.7-3.8-.5-1.2-1.1-2.3-2-3.3-.9-.9-1.9-1.7-3.2-2.3-1.3-.6-2.8-.9-4.4-.9h-4.8v20.6z"/></g><path fill="#FFF" d="M92.1 27.4h3.6V.6h-3.6z"/><g transform="translate(267.3 .18)"><defs><filter id="a" filterUnits="userSpaceOnUse" x="-167.1" y="-.2" width="27.6" height="28"><feColorMatrix values="1 0 0 0 0 0 1 0 0 0 0 0 1 0 0 0 0 0 1 0"/></filter></defs><mask maskUnits="userSpaceOnUse" x="-167.1" y="-.2" width="27.6" height="28" id="b"><path fill="#FFF" d="M-139.4-.2v28.1h-27.7V-.2z" filter="url(#a)"/></mask><path mask="url(#b)" fill="#FFF" d="M-167.1 13.8c0-1.8.3-3.6 1-5.2.6-1.7 1.5-3.2 2.7-4.5 1.2-1.3 2.6-2.3 4.4-3.1 1.7-.8 3.6-1.2 5.8-1.2 2.1 0 4.1.4 5.8 1.2 1.7.8 3.2 1.8 4.3 3.1 1.2 1.3 2.1 2.8 2.7 4.5.6 1.7 1 3.4 1 5.2 0 1.8-.3 3.6-1 5.2-.6 1.7-1.6 3.2-2.7 4.5-1.2 1.3-2.6 2.3-4.3 3.1-1.7.8-3.6 1.2-5.8 1.2-2.1 0-4.1-.4-5.8-1.2-1.7-.8-3.2-1.8-4.4-3.1-1.2-1.3-2.1-2.8-2.7-4.5-.6-1.6-1-3.4-1-5.2m3.7 0c0 1.4.2 2.8.7 4.1.5 1.3 1.1 2.5 2 3.5.9 1 1.9 1.8 3.2 2.4 1.2.6 2.7.9 4.2.9s3-.3 4.2-.9c1.3-.6 2.3-1.4 3.2-2.4.9-1 1.5-2.2 2-3.5.5-1.3.7-2.7.7-4.1s-.2-2.8-.7-4.1c-.5-1.3-1.1-2.5-2-3.5-.9-1-1.9-1.8-3.2-2.4-1.3-.6-2.7-.9-4.2-.9-1.6 0-3 .3-4.2.9-1.2.6-2.3 1.4-3.2 2.4-.9 1-1.6 2.2-2 3.5-.5 1.4-.7 2.7-.7 4.1"/></g></svg>