<?xml version="1.0" standalone="no"?>
<!DOCTYPE svg PUBLIC "-//W3C//DTD SVG 20010904//EN"
 "http://www.w3.org/TR/2001/REC-SVG-20010904/DTD/svg10.dtd">
<svg version="1.0" xmlns="http://www.w3.org/2000/svg"
 width="712.000000pt" height="712.000000pt" viewBox="0 0 712.000000 712.000000"
 preserveAspectRatio="xMidYMid meet">
<metadata>
Created by potrace 1.11, written by Peter Selinger 2001-2013
</metadata>
<g transform="translate(0.000000,712.000000) scale(0.100000,-0.100000)"
fill="#000000" stroke="none">
<path d="M5130 6832 c-14 -9 -27 -19 -30 -23 -3 -3 -16 -12 -29 -19 -23 -12
-426 -275 -553 -361 -32 -22 -62 -39 -67 -39 -5 0 -11 -3 -13 -8 -1 -4 -79
-57 -173 -117 -93 -60 -174 -113 -180 -118 -5 -4 -65 -44 -132 -88 -125 -81
-153 -105 -85 -70 84 42 307 110 417 126 23 3 51 7 64 10 89 17 302 22 426 11
93 -9 130 -13 130 -15 0 -1 22 -4 49 -7 27 -3 58 -10 68 -15 11 -6 22 -8 25
-6 3 3 22 -1 44 -8 22 -8 42 -14 44 -14 10 0 150 -44 160 -51 6 -4 33 -15 60
-25 109 -39 295 -145 421 -240 80 -60 76 -56 174 -150 40 -38 69 -63 64 -55
-4 8 -35 56 -67 105 -33 50 -77 117 -99 150 -21 33 -43 67 -48 75 -191 287
-330 503 -330 510 0 4 -3 10 -7 12 -5 2 -33 41 -63 88 -30 47 -58 87 -62 88
-5 2 -8 9 -8 17 0 7 -7 19 -16 26 -9 7 -19 20 -23 29 -10 24 -125 200 -131
199 -3 0 -16 -8 -30 -17z"/>
<path d="M3795 4753 c-69 -24 -105 -72 -105 -141 0 -73 46 -115 196 -177 51
-21 69 -50 55 -87 -21 -55 -111 -44 -137 17 -8 19 -21 35 -29 36 -8 0 -31 1
-50 1 -61 0 -58 5 -39 -67 10 -42 62 -93 109 -110 56 -19 145 -12 195 16 54
31 84 92 77 157 -4 39 -12 53 -45 82 -21 19 -57 41 -78 49 -115 40 -140 62
-127 111 6 22 34 33 73 27 17 -2 30 -14 39 -35 15 -32 18 -34 71 -34 70 0 69
0 60 30 -4 15 -13 38 -19 52 -13 27 -72 72 -100 77 -53 9 -111 8 -146 -4z"/>
<path d="M5265 4760 c-84 -13 -153 -66 -196 -150 -28 -54 -32 -173 -7 -231 62
-145 244 -207 393 -134 58 28 94 67 119 127 18 43 14 46 -63 43 -33 -1 -56 -6
-59 -14 -2 -7 -14 -22 -26 -34 -84 -87 -233 -35 -255 89 -19 106 51 195 153
198 53 1 111 -36 126 -79 10 -29 11 -30 71 -28 33 1 63 3 65 6 12 11 -36 98
-76 138 -62 60 -146 84 -245 69z"/>
<path d="M4166 4752 c-15 -3 -16 -27 -14 -265 l3 -262 45 -1 c70 -1 75 4 74
80 l-2 66 59 1 c32 1 62 2 67 3 4 1 21 6 39 10 17 4 46 21 63 38 61 58 78 141
43 218 -40 89 -90 111 -252 114 -59 0 -115 0 -125 -2z m235 -115 c44 -33 50
-92 15 -134 -20 -24 -32 -28 -83 -31 l-60 -3 0 91 0 90 56 0 c31 0 63 -6 72
-13z"/>
<path d="M4722 4720 c-8 -19 -19 -44 -24 -55 -4 -11 -12 -33 -17 -50 -5 -16
-26 -75 -46 -130 -20 -55 -38 -104 -39 -110 -2 -5 -6 -17 -9 -25 -15 -34 -37
-103 -37 -114 0 -8 20 -12 60 -11 33 1 62 4 63 6 2 2 8 16 14 31 12 26 13 26
105 25 84 -2 93 -4 96 -22 7 -35 21 -42 77 -40 64 2 72 7 58 38 -6 12 -16 38
-23 57 -7 19 -16 44 -20 55 -8 18 -90 247 -121 337 -12 35 -14 36 -67 40 -54
3 -55 3 -70 -32z m96 -226 c11 -38 23 -77 27 -86 4 -10 3 -18 -1 -19 -126 -11
-126 -11 -99 69 12 37 26 82 30 101 9 42 16 31 43 -65z"/>
<path d="M5683 4752 c-18 -3 -23 -10 -24 -35 -1 -18 0 -36 1 -42 1 -5 2 -14 2
-20 -1 -9 -2 -104 -1 -160 0 -11 0 -74 0 -140 0 -65 2 -121 5 -124 9 -10 114
-7 115 4 4 37 3 498 -1 504 -6 10 -65 17 -97 13z"/>
<path d="M6049 4752 c-24 -3 -30 -13 -62 -105 -20 -56 -41 -115 -48 -132 -7
-16 -13 -35 -14 -41 -2 -5 -21 -61 -44 -123 -23 -63 -39 -116 -36 -120 4 -3
32 -6 62 -6 53 0 57 1 69 31 l13 31 92 0 c88 0 91 -1 102 -26 6 -14 13 -28 14
-30 7 -9 114 -8 119 1 6 9 -9 52 -108 323 -22 61 -47 129 -55 153 -9 23 -21
42 -27 43 -6 0 -20 1 -31 2 -11 1 -32 1 -46 -1z m45 -193 c2 -13 5 -25 7 -26
1 -2 3 -7 4 -13 1 -5 4 -13 5 -17 1 -5 3 -12 5 -18 1 -5 3 -12 4 -15 5 -10 13
-46 14 -65 2 -17 -4 -20 -55 -20 -66 -1 -63 -11 -26 120 28 97 33 103 42 54z"/>
<path d="M6428 4752 l-47 -3 -3 -227 c-2 -125 -1 -243 2 -262 l5 -35 133 0
132 0 1 25 c0 14 2 37 3 53 1 15 -3 27 -9 28 -5 0 -40 1 -76 1 l-67 0 2 208
c1 234 7 217 -76 212z"/>
<path d="M6782 4005 c-171 -39 -258 -221 -184 -388 42 -95 133 -150 246 -151
106 0 179 42 236 137 45 73 42 202 -5 277 -66 104 -175 151 -293 125z m160
-83 c68 -42 99 -112 94 -209 -5 -86 -69 -165 -149 -182 -172 -39 -301 154
-212 317 38 70 99 104 177 99 34 -3 70 -13 90 -25z"/>
<path d="M4715 4003 c-33 -8 -84 -64 -91 -100 -9 -49 3 -97 33 -127 14 -14 63
-40 109 -58 102 -38 124 -57 124 -104 0 -36 -37 -82 -66 -85 -86 -8 -127 12
-148 76 -12 33 -18 39 -42 39 -28 0 -29 -2 -26 -40 4 -46 40 -97 83 -120 50
-25 127 -26 178 -1 61 30 85 66 87 130 2 44 -2 59 -24 86 -25 34 -98 72 -159
86 -18 3 -33 11 -33 16 0 5 -7 9 -15 9 -36 0 -48 86 -15 115 10 9 38 20 62 22
52 6 93 -21 103 -67 6 -26 10 -29 41 -28 34 1 35 2 28 32 -21 98 -114 146
-229 119z"/>
<path d="M5035 4000 c-17 -3 -29 -12 -31 -24 -5 -36 4 -41 71 -38 l65 4 0
-235 0 -235 33 2 32 3 3 231 2 231 58 -1 c32 -1 64 2 70 6 12 7 11 40 -1 52
-8 9 -259 11 -302 4z"/>
<path d="M5438 4002 c-18 -2 -28 -10 -29 -20 -1 -9 -1 -98 -1 -198 0 -189 5
-215 51 -268 60 -69 191 -68 263 1 44 42 51 81 53 290 1 190 1 192 -22 196
-45 8 -47 0 -48 -205 -1 -171 -3 -196 -20 -221 -19 -29 -56 -50 -87 -50 -45 1
-55 4 -79 26 -37 32 -41 60 -43 264 0 100 -3 183 -6 185 -3 2 -17 2 -32 0z"/>
<path d="M5913 4002 c-13 -2 -23 -6 -24 -10 -3 -21 -4 -499 -1 -508 2 -8 38
-11 118 -9 101 3 121 6 170 30 63 31 116 94 135 162 13 50 7 133 -14 183 -25
57 -94 116 -157 134 -52 15 -178 25 -227 18z m223 -87 c133 -59 154 -238 38
-333 -44 -37 -132 -54 -214 -43 -3 1 -5 91 -5 201 l0 201 65 -2 c43 -1 82 -9
116 -24z"/>
<path d="M6420 3995 c-7 -8 -9 -108 -8 -266 l3 -254 28 -1 c16 -1 31 5 34 13
3 8 6 126 7 263 l1 248 -28 5 c-15 2 -32 -2 -37 -8z"/>
<path d="M1614 1010 c30 -47 59 -89 63 -95 5 -5 29 -43 53 -82 25 -40 48 -73
52 -73 5 0 8 -5 8 -10 0 -12 92 -153 103 -158 4 -2 7 -8 7 -12 0 -5 20 -38 45
-74 25 -37 45 -68 45 -71 0 -3 57 -89 96 -143 2 -4 59 33 349 223 77 51 160
105 185 120 24 15 51 34 58 42 7 7 19 13 27 13 7 0 15 3 17 8 2 4 27 22 56 41
56 36 63 49 16 30 -28 -11 -41 -14 -86 -24 -13 -2 -34 -7 -48 -10 -62 -13
-103 -17 -210 -18 -63 0 -137 2 -165 7 -27 4 -66 9 -85 12 -57 9 -233 70 -307
107 -63 32 -215 134 -238 160 -6 7 -30 30 -53 52 l-43 40 55 -85z"/>
</g>
</svg>
