<?xml version="1.0" encoding="UTF-8"?>
<svg width="48px" height="48px" viewBox="0 0 48 48" version="1.1" xmlns="http://www.w3.org/2000/svg" xmlns:xlink="http://www.w3.org/1999/xlink">
    <!-- Generator: Sketch 48.2 (47327) - http://www.bohemiancoding.com/sketch -->
    <title>Construction</title>
    <desc>Created with Sketch.</desc>
    <defs></defs>
    <g id="Homepage" stroke="none" stroke-width="1" fill="none" fill-rule="evenodd" transform="translate(-718.000000, -1528.000000)">
        <path d="M758.263428,1535.73657 C767.245524,1544.71867 767.245524,1559.28133 758.263428,1568.26343 C749.281331,1577.24552 734.718669,1577.24552 725.736572,1568.26343 C716.754476,1559.28133 716.754476,1544.71867 725.736572,1535.73657 C734.718669,1526.75448 749.281331,1526.75448 758.263428,1535.73657 Z M725.736572,1568.26343 C731.31495,1573.84181 740.359429,1573.84181 745.937807,1568.26343 C751.516185,1562.68505 751.516185,1553.64057 745.937807,1548.06219 C740.359429,1542.48382 731.31495,1542.48382 725.736572,1548.06219 C720.1571,1553.64057 720.1571,1562.68505 725.736572,1568.26343 Z M725.736572,1568.26343 C729.182974,1571.71092 734.772296,1571.71092 738.219793,1568.26343 C741.667289,1564.81703 741.667289,1559.2277 738.219793,1555.78021 C734.772296,1552.33271 729.182974,1552.33271 725.736572,1555.78021 C722.289076,1559.2277 722.289076,1564.81703 725.736572,1568.26343 Z" id="Construction" stroke="#000000" stroke-width="1.2"></path>
    </g>
</svg>