<?xml version="1.0" encoding="UTF-8"?>
<svg width="178px" height="165px" viewBox="0 0 178 165" version="1.1" xmlns="http://www.w3.org/2000/svg" xmlns:xlink="http://www.w3.org/1999/xlink">
    <!-- Generator: Sketch 48.2 (47327) - http://www.bohemiancoding.com/sketch -->
    <title>logo</title>
    <desc>Created with Sketch.</desc>
    <defs>
        <polygon id="path-1" points="0 0.013116532 137.234405 0.013116532 137.234405 114.768161 1.45903288e-14 114.768161"></polygon>
    </defs>
    <g id="Homepage" stroke="none" stroke-width="1" fill="none" fill-rule="evenodd" transform="translate(-86.000000, -66.000000)">
        <g id="logo" transform="translate(86.000000, 66.000000)">
            <g id="Group-5" transform="translate(91.546389, 52.268872)" fill="#FFFFFF">
                <path d="M0.305021954,9.2247644 L3.35258797,9.2247644 C3.35258797,9.93058665 3.55160186,10.4814723 3.94564936,10.8787456 C4.33704334,11.2733704 4.83590482,11.4720071 5.43560001,11.4720071 C5.94640232,11.4720071 6.36565825,11.3316372 6.68673399,11.0535459 C7.01179001,10.7714818 7.17365464,10.3993692 7.17365464,9.93720787 C7.17365464,9.67500749 7.12191103,9.45385868 7.01709705,9.27111295 C6.91360982,9.08704298 6.77031982,8.92813366 6.58988056,8.79041224 C6.40546103,8.65269083 6.18787251,8.53086035 5.93711501,8.42359655 C5.68635751,8.31633276 5.42100566,8.20906896 5.1330989,8.10048093 C4.54534455,7.88860183 3.98545214,7.66877726 3.45076816,7.44233147 C2.91475742,7.21985842 2.4397776,6.94971257 2.02715547,6.63851514 C1.61187982,6.32864195 1.28151677,5.95652929 1.03606631,5.52217713 C0.787962324,5.08517649 0.665900472,4.55018176 0.665900472,3.91189597 C0.665900472,3.26036774 0.79459612,2.6949154 1.05066066,2.2115662 C1.31203223,1.728217 1.6516826,1.33094369 2.07889908,1.01577353 C2.50478881,0.704576103 2.99967001,0.475481826 3.56619621,0.324517968 C4.12874214,0.174878354 4.71649649,0.0993964244 5.32547899,0.0993964244 C6.09101908,0.0993964244 6.76633955,0.211957196 7.3474601,0.435754495 C7.93256094,0.65822755 8.4221351,0.964128 8.81750936,1.3521316 C9.21155686,1.7401352 9.50875094,2.18375707 9.70378455,2.68564568 C9.90014492,3.18621006 10.0009786,3.7185563 10.0009786,4.28136015 L6.93483797,4.28136015 C6.93483797,3.70398961 6.79420149,3.24844954 6.51558205,2.91209147 C6.23430908,2.57838189 5.82434047,2.41020286 5.28965649,2.41020286 C4.86111325,2.41020286 4.49094742,2.52011514 4.18181251,2.74391244 C3.87002408,2.96638549 3.71346649,3.29612234 3.71346649,3.7304745 C3.71346649,4.15555694 3.87533112,4.4945635 4.20038714,4.75543964 C4.52146288,5.01234305 4.9831751,5.24805855 5.58021677,5.46126189 C6.15470353,5.65989855 6.72388325,5.87310189 7.28377566,6.10087192 C7.84632158,6.32334498 8.34518306,6.59613932 8.77637982,6.91395797 C9.21155686,7.22912813 9.56049455,7.61713173 9.82319288,8.07267179 C10.0898715,8.53086035 10.2212207,9.09366421 10.2212207,9.76240761 C10.2212207,10.4020176 10.0991588,10.9820367 9.85370834,11.5024647 C9.60560436,12.01892 9.26993427,12.4598934 8.83475723,12.8147909 C8.40356047,13.1723369 7.88612436,13.443807 7.29040945,13.6371466 C6.69071427,13.8265136 6.04192899,13.9205349 5.34405362,13.9205349 C4.60372195,13.9205349 3.92707473,13.8172439 3.31278519,13.6093375 C2.6971689,13.4014312 2.16779195,13.0981792 1.72465436,12.6956089 C1.28151677,12.2970113 0.932579083,11.8043924 0.680494824,11.2243734 C0.429737324,10.6430301 0.305021954,9.9769352 0.305021954,9.2247644" id="Fill-1"></path>
                <path d="M12.222239,13.5815284 L12.222239,0.429133273 L17.7203293,0.429133273 C18.4460667,0.429133273 19.1028125,0.557584977 19.6932204,0.814488386 C20.284955,1.07139179 20.78647,1.41701958 21.2057259,1.85004749 C21.6249818,2.28439964 21.9460576,2.78893675 22.1729334,3.3636588 C22.3984825,3.93838086 22.511257,4.54620903 22.511257,5.18979179 C22.511257,5.82542909 22.3984825,6.43060877 22.1729334,7.00533083 C21.9460576,7.58005289 21.6249818,8.08458999 21.2083794,8.51894215 C20.7891235,8.9532943 20.284955,9.29759784 19.6972006,9.55450125 C19.1067928,9.81140466 18.4487202,9.93985636 17.7229829,9.93985636 L15.269805,9.93985636 L15.269805,13.5815284 L12.222239,13.5815284 Z M15.269805,7.45424967 L17.352817,7.45424967 C17.6659322,7.45424967 17.9525122,7.39333443 18.2218443,7.26488273 C18.4858694,7.14305224 18.708765,6.9775217 18.8892043,6.76961533 C19.0696435,6.56833019 19.2129335,6.32599347 19.3111137,6.05187488 C19.4159277,5.77643205 19.4650178,5.48907102 19.4650178,5.18979179 C19.4650178,4.88918832 19.4159277,4.60182729 19.3111137,4.32506022 C19.2129335,4.04564466 19.0696435,3.80463218 18.8892043,3.59672581 C18.708765,3.39411642 18.488523,3.22991012 18.2258246,3.10145842 C17.9617995,2.97830369 17.6712393,2.91473996 17.352817,2.91473996 L15.269805,2.91473996 L15.269805,7.45424967 Z" id="Fill-3"></path>
            </g>
            <path d="M113.580941,65.8504004 L118.280323,52.6980053 L121.079785,52.6980053 L125.83489,65.8504004 L122.529933,65.8504004 L122.025764,64.3182497 L117.343631,64.3182497 L116.830175,65.8504004 L113.580941,65.8504004 Z M118.078655,61.8697218 L121.272165,61.8697218 L119.694648,56.4588593 L118.078655,61.8697218 Z" id="Fill-6" fill="#FFFFFF"></path>
            <path d="M126.045977,59.2742029 C126.045977,58.3750409 126.198555,57.5103094 126.505036,56.6720627 C126.807537,55.8404372 127.257308,55.1041573 127.847716,54.4645473 C128.442104,53.8262615 129.173149,53.3151032 130.04483,52.9363693 C130.91651,52.5576354 131.914233,52.3682685 133.040652,52.3682685 C134.00786,52.3682685 134.876887,52.5086384 135.647734,52.7893782 C136.418581,53.0714422 137.084614,53.4594458 137.648487,53.9507405 C138.211033,54.4433594 138.663458,55.0220542 139.000455,55.6881491 C139.342759,56.354244 139.55504,57.0600663 139.639953,57.8069401 L136.463691,57.8069401 C136.390719,57.421585 136.266004,57.0666875 136.093525,56.7395991 C135.915739,56.4125108 135.683556,56.1277982 135.39565,55.882813 C135.102436,55.6457733 134.766766,55.4550821 134.387313,55.3147122 C134.001226,55.1809635 133.570029,55.1094543 133.085762,55.1094543 C132.462185,55.1094543 131.902293,55.2233393 131.412718,55.4550821 C130.91651,55.6815279 130.503888,55.9914011 130.166891,56.3727834 C129.831221,56.7554901 129.57383,57.1977877 129.396044,57.7062975 C129.218259,58.2134831 129.130693,58.7365597 129.130693,59.2742029 C129.130693,59.8489249 129.227546,60.3905409 129.423906,60.8977265 C129.620267,61.4049121 129.888272,61.8445612 130.23721,62.2246193 C130.58084,62.596732 130.996116,62.8973355 131.48569,63.11716 C131.969957,63.3369846 132.516582,63.4468969 133.122911,63.4468969 C134.010513,63.4468969 134.734924,63.2244238 135.298796,62.7781535 C135.861342,62.3318831 136.238142,61.783646 136.427868,61.1360905 L139.658527,61.1360905 C139.536465,61.8392642 139.293668,62.4934409 138.939424,63.0986206 C138.578545,63.7038003 138.12214,64.238795 137.564901,64.7036048 C137.008989,65.1684146 136.350916,65.5325818 135.59201,65.7961064 C134.833104,66.0583068 133.998572,66.189407 133.085762,66.189407 C131.984552,66.189407 131.000096,66.0026885 130.127089,65.6239546 C129.255408,65.2505177 128.515076,64.7433321 127.910074,64.1143161 C127.301091,63.4786788 126.838053,62.7476959 126.523611,61.9160704 C126.205188,61.0844449 126.045977,60.2038224 126.045977,59.2742029" id="Fill-7" fill="#FFFFFF"></path>
            <polygon id="Fill-9" fill="#FFFFFF" points="141.502855 65.8507977 144.587571 65.8507977 144.587571 52.6984026 141.502855 52.6984026"></polygon>
            <path d="M145.918443,65.8504004 L150.617824,52.6980053 L153.417286,52.6980053 L158.172391,65.8504004 L154.867434,65.8504004 L154.363265,64.3182497 L149.682459,64.3182497 L149.167676,65.8504004 L145.918443,65.8504004 Z M150.416157,61.8697218 L153.610993,61.8697218 L152.032149,56.4588593 L150.416157,61.8697218 Z" id="Fill-10" fill="#FFFFFF"></path>
            <polygon id="Fill-11" fill="#FFFFFF" points="159.503396 65.8504004 159.503396 52.6980053 162.550962 52.6980053 162.550962 63.2178026 166.296404 63.2178026 166.296404 65.8504004"></polygon>
            <path d="M115.005615,80.4430437 L116.713155,80.4430437 C116.713155,81.3408814 116.982487,82.0599461 117.521151,82.5922923 C118.062469,83.1299356 118.781572,83.3961087 119.683769,83.3961087 C120.449309,83.3961087 121.075539,83.197472 121.569093,82.8054957 C122.058668,82.4082224 122.302791,81.8546882 122.302791,81.1395963 C122.302791,80.7542411 122.225839,80.433774 122.075915,80.1768706 C121.925992,79.9199672 121.737592,79.7027911 121.504082,79.5253424 C121.269246,79.3478936 121.002567,79.2048752 120.70272,79.0883417 C120.402872,78.9784294 120.100371,78.8711656 119.79389,78.7731716 C119.227363,78.5957228 118.683392,78.4103286 118.156669,78.2077192 C117.633925,78.011731 117.174867,77.7680701 116.780819,77.4807091 C116.385445,77.193348 116.071003,76.8384505 115.832186,76.4160166 C115.59337,75.9949069 115.473961,75.4718303 115.473961,74.8481112 C115.473961,74.261471 115.580102,73.7383945 115.795037,73.2802059 C116.008645,72.8206931 116.296552,72.4393107 116.661411,72.1334103 C117.024943,71.8275098 117.453486,71.5957671 117.949694,71.432885 C118.444575,71.2713272 118.968645,71.1878998 119.51527,71.1878998 C120.130886,71.1878998 120.693432,71.2858939 121.206888,71.4765851 C121.721671,71.671249 122.164808,71.9440433 122.534974,72.2949681 C122.90514,72.6472171 123.193047,73.0683268 123.398694,73.5635942 C123.603015,74.0588616 123.707829,74.6070988 123.707829,75.2056572 L122.00029,75.2056572 C121.975082,74.4164076 121.749533,73.8059309 121.323643,73.3782 C120.89908,72.9438478 120.302038,72.7293202 119.533845,72.7293202 C118.842603,72.7293202 118.276077,72.9027963 117.839573,73.2523968 C117.401743,73.600673 117.181501,74.0959404 117.181501,74.738199 C117.181501,75.074557 117.247839,75.3619181 117.380514,75.600282 C117.511864,75.838646 117.689649,76.0425797 117.912545,76.2081102 C118.13544,76.380262 118.395485,76.5206319 118.692679,76.6424624 C118.992527,76.7589959 119.301662,76.8689082 119.625391,76.9669022 C120.166709,77.144351 120.700066,77.3337179 121.225463,77.5350031 C121.752186,77.7376125 122.223186,77.9878947 122.635808,78.2871739 C123.049757,78.5864531 123.382773,78.9572415 123.633531,79.3942422 C123.884288,79.8312428 124.01033,80.3755073 124.01033,81.029684 C124.01033,81.6414849 123.893576,82.1883978 123.661393,82.671747 C123.42921,83.1550962 123.113441,83.5642877 122.719394,83.9006458 C122.324019,84.2370038 121.859654,84.4939073 121.326297,84.671356 C120.794266,84.8488047 120.222433,84.9375291 119.606817,84.9375291 C118.943437,84.9375291 118.331801,84.8329138 117.774562,84.6250074 C117.217323,84.4171011 116.734383,84.1244431 116.321761,83.7417365 C115.907812,83.3590298 115.586736,82.8889231 115.354553,82.3327404 C115.12237,81.7765578 115.005615,81.1462175 115.005615,80.4430437" id="Fill-12" fill="#FFFFFF"></path>
            <polygon id="Fill-14" fill="#FFFFFF" points="125.111806 73.0226404 125.111806 71.4825442 133.648175 71.4825442 133.648175 73.0226404 130.223809 73.0226404 130.223809 84.6349393 128.517597 84.6349393 128.517597 73.0226404"></polygon>
            <g id="Group-19" transform="translate(135.115185, 71.388690)" fill="#FFFFFF">
                <path d="M0.0842368519,8.9805934 L0.0842368519,0.0935894157 L1.79177602,0.0935894157 L1.79177602,8.9805934 C1.79177602,9.38448794 1.85944074,9.76984305 1.99078991,10.1366587 C2.12213907,10.5034744 2.31186565,10.8279143 2.56262315,11.1046814 C2.81603417,11.3840969 3.11588176,11.6039215 3.46481944,11.7668036 C3.81375713,11.9283614 4.20913139,12.007816 4.65226898,12.007816 C5.08081222,12.007816 5.4722062,11.9283614 5.82777769,11.7668036 C6.18202241,11.6039215 6.48452352,11.3867454 6.7392613,11.1179238 C6.9900188,10.8491022 7.18239889,10.5299593 7.32038185,10.1578467 C7.45836481,9.79103096 7.52868306,9.39640614 7.52868306,8.9805934 L7.52868306,0.0935894157 L9.23489546,0.0935894157 L9.23489546,8.9805934 C9.23489546,9.6043125 9.12477444,10.1949255 8.90585917,10.7444869 C8.68429037,11.3006695 8.37913574,11.7840187 7.98376148,12.1945345 C7.58971398,12.609023 7.10942713,12.9374356 6.54024741,13.1810966 C5.97106769,13.4260818 5.34085704,13.5479122 4.65226898,13.5479122 C3.94775981,13.5479122 3.31887593,13.4260818 2.76163704,13.1810966 C2.20439815,12.9374356 1.72676481,12.609023 1.32608352,12.1945345 C0.925402222,11.7840187 0.620247593,11.3006695 0.405312593,10.7511081 C0.191704352,10.2002225 0.0842368519,9.61093372 0.0842368519,8.9805934" id="Fill-15"></path>
                <path d="M12.0444409,13.2455873 L12.0444409,0.0931921424 L16.0990172,0.0931921424 C17.1882865,0.0931921424 18.1541673,0.282559088 19.0019664,0.655996001 C19.8457853,1.03472989 20.5622353,1.52999729 21.1407024,2.14179819 C21.7218229,2.75889607 22.1662873,3.45942134 22.4687884,4.24867098 C22.7712895,5.03659639 22.9212133,5.84438545 22.9212133,6.6693897 C22.9212133,7.49439394 22.7712895,8.30218301 22.4687884,9.09143266 C22.1662873,9.87935806 21.7218229,10.5798833 21.1407024,11.1969812 C20.5622353,11.8087821 19.8457853,12.3040495 19.0019664,12.6827834 C18.1541673,13.0562203 17.1882865,13.2455873 16.0990172,13.2455873 L12.0444409,13.2455873 Z M13.75198,11.7041668 L16.1016707,11.7041668 C16.9030333,11.7041668 17.6194833,11.5611484 18.2563277,11.2737874 C18.8852116,10.9864264 19.4159153,10.6063682 19.8404783,10.1362615 C20.266368,9.66615471 20.5927508,9.13115999 20.8196266,8.53127729 C21.0465024,7.93271883 21.159277,7.31164822 21.159277,6.6693897 C21.159277,6.03242816 21.0465024,5.41533028 20.8196266,4.81412333 C20.5927508,4.21159214 20.266368,3.67659742 19.8404783,3.20516642 C19.4159153,2.74168089 18.8852116,2.36162275 18.2563277,2.0676405 C17.6194833,1.78027947 16.9030333,1.63328835 16.1016707,1.63328835 L13.75198,1.63328835 L13.75198,11.7041668 Z" id="Fill-17"></path>
            </g>
            <polygon id="Fill-20" fill="#FFFFFF" points="160.257924 84.6338799 162.01986 84.6338799 162.01986 71.4814848 160.257924 71.4814848"></polygon>
            <g id="Group-30" transform="translate(0.000000, 0.092795)">
                <path d="M164.260093,77.9651523 C164.260093,77.0792328 164.416651,76.2224467 164.728439,75.3934697 C165.040228,74.565817 165.489999,73.8321856 166.077754,73.1952241 C166.661528,72.5595868 167.375324,72.0524012 168.21649,71.6696946 C169.055001,71.2883122 170.002308,71.0949725 171.058408,71.0949725 C172.107874,71.0949725 173.056507,71.2883122 173.895019,71.6696946 C174.736185,72.0524012 175.448654,72.5595868 176.027121,73.1952241 C176.608242,73.8321856 177.058013,74.565817 177.373782,75.3934697 C177.688224,76.2224467 177.844782,77.0792328 177.844782,77.9651523 C177.844782,78.852396 177.688224,79.7105064 177.373782,80.5355106 C177.058013,81.3671361 176.608242,82.1020917 176.027121,82.737729 C175.448654,83.3799875 174.736185,83.8898216 173.895019,84.2725283 C173.056507,84.6512621 172.107874,84.8446018 171.058408,84.8446018 C170.002308,84.8446018 169.055001,84.6512621 168.21649,84.2725283 C167.375324,83.8898216 166.661528,83.3799875 166.077754,82.737729 C165.489999,82.1020917 165.040228,81.3671361 164.728439,80.5421319 C164.416651,79.7171276 164.260093,78.857693 164.260093,77.9651523 M166.068466,77.9651523 C166.068466,78.6564079 166.181241,79.3225028 166.41077,79.9607886 C166.6403,80.6003986 166.974643,81.165851 167.408493,81.6611184 C167.83969,82.1563857 168.36376,82.5536591 168.975396,82.8529383 C169.587032,83.1535418 170.280927,83.3031814 171.058408,83.3031814 C171.819968,83.3031814 172.51519,83.1535418 173.133459,82.8529383 C173.754383,82.5536591 174.277126,82.1563857 174.703016,81.6611184 C175.127579,81.165851 175.455288,80.6003986 175.687471,79.9607886 C175.920981,79.3225028 176.036409,78.6564079 176.036409,77.9651523 C176.036409,77.2738967 175.920981,76.6078018 175.687471,75.9655433 C175.455288,75.3232848 175.127579,74.7551839 174.703016,74.2599166 C174.277126,73.7646492 173.754383,73.3700243 173.133459,73.0760421 C172.51519,72.7833841 171.819968,72.636393 171.058408,72.636393 C170.280927,72.636393 169.587032,72.7833841 168.975396,73.0760421 C168.36376,73.3700243 167.83969,73.7646492 167.408493,74.2599166 C166.974643,74.7551839 166.6403,75.3272575 166.41077,75.9681918 C166.181241,76.6170715 166.068466,77.280518 166.068466,77.9651523" id="Fill-21" fill="#FFFFFF"></path>
                <path d="M150.753552,33.2319125 L129.049097,0.120506238 L95.2459244,22.244657 C114.129689,13.4609441 136.663368,17.942187 150.753552,33.2319125" id="Fill-23" fill="#FFFFFF"></path>
                <path d="M38.889304,143.909609 L52.1940459,164.206302 L71.2980525,151.700138 C60.0060044,155.957584 47.1019438,152.930361 38.889304,143.909609" id="Fill-25" fill="#FFFFFF"></path>
                <g id="Group-29" transform="translate(0.000000, 29.811780)">
                    <mask id="mask-2" fill="white">
                        <use xlink:href="#path-1"></use>
                    </mask>
                    <g id="Clip-28"></g>
                    <path d="M75.4392661,62.4883176 C62.020423,42.2710787 65.9516107,15.616688 83.6638468,0.013116532 L-0.000265351852,54.7745941 L33.7153409,106.204273 C27.8802537,93.1843021 32.1126158,77.4906821 44.40106,69.3465792 C58.085255,60.2781537 76.5351693,64.0111986 85.6102026,77.6840217 C93.4765583,89.5386574 91.7013544,104.960807 82.1778764,114.768161 L137.234405,78.7341475 C115.779381,89.6671091 89.069064,83.0220508 75.4392661,62.4883176 M64.60495,49.6020956 C64.60495,55.8935806 59.6296028,60.9932457 53.4906877,60.9932457 C47.3517726,60.9932457 42.3750986,55.8935806 42.3750986,49.6020956 C42.3750986,43.3119348 47.3517726,38.2109455 53.4906877,38.2109455 C59.6296028,38.2109455 64.60495,43.3119348 64.60495,49.6020956" id="Fill-27" fill="#FFFFFF" mask="url(#mask-2)"></path>
                </g>
            </g>
        </g>
    </g>
</svg>
